<?xml version="1.0" encoding="UTF-8" standalone="no"?>
<!DOCTYPE svg PUBLIC "-//W3C//DTD SVG 1.1//EN" "http://www.w3.org/Graphics/SVG/1.1/DTD/svg11.dtd">
<svg width="100%" height="100%" viewBox="0 0 2500 2438" version="1.1" xmlns="http://www.w3.org/2000/svg" xmlns:xlink="http://www.w3.org/1999/xlink" xml:space="preserve" xmlns:serif="http://www.serif.com/" style="fill-rule:evenodd;clip-rule:evenodd;stroke-linejoin:round;stroke-miterlimit:2;">
    <g transform="matrix(10.4167,0,0,10.4167,0,0.25)">
        <path d="M42.5,0L197.5,0C221,0 240,19 240,42.5L240,191.5C240,215 221,234 197.5,234L42.5,234C19,234 0,215 0,191.5L0,42.5C0,19 19,0 42.5,0Z" style="fill:rgb(61,61,61);fill-rule:nonzero;"/>
    </g>
    <g transform="matrix(10.4167,0,0,10.4167,0,0.25)">
        <path d="M116.3,140.4L79.1,140.4L71.5,163.9C71.3,164.8 70.5,165.4 69.6,165.3L50.8,165.3C49.7,165.3 49.4,164.7 49.7,163.5L81.9,70.8C82.2,69.8 82.5,68.7 82.9,67.5C83.3,65.4 83.5,63.2 83.5,61C83.4,60.5 83.8,60 84.3,59.9L110.2,59.9C111,59.9 111.4,60.2 111.5,60.7L148,163.7C148.3,164.8 148,165.3 147,165.3L126.1,165.3C125.4,165.4 124.7,164.9 124.5,164.2L116.3,140.4ZM84.9,120.1L110.3,120.1C109.7,118 108.9,115.5 108,112.9C107.1,110.2 106.2,107.3 105.3,104.3C104.3,101.2 103.4,98.2 102.4,95.1C101.4,92 100.5,89.1 99.7,86.2C98.9,83.4 98.2,80.8 97.5,78.4L97.3,78.4C96.4,82.7 95.3,87 93.9,91.3C92.4,96.1 90.9,101.1 89.3,106.1C87.9,111.2 86.4,115.9 84.9,120.1ZM169.8,77C166.5,77.1 163.3,75.8 160.9,73.5C158.6,71 157.4,67.7 157.5,64.3C157.4,60.9 158.7,57.7 161.1,55.4C163.5,53.1 166.7,51.9 170,51.9C173.9,51.9 176.9,53.1 179.1,55.4C181.3,57.8 182.5,61 182.4,64.3C182.5,67.7 181.3,71 178.9,73.5C176.6,75.9 173.2,77.2 169.8,77ZM158.6,163.8L158.6,86.8C158.6,85.8 159,85.4 159.9,85.4L179.7,85.4C180.6,85.4 181,85.9 181,86.8L181,163.8C181,164.9 180.6,165.4 179.7,165.4L160.1,165.4C159.1,165.4 158.6,164.8 158.6,163.8Z" style="fill:white;fill-rule:nonzero;"/>
    </g>
</svg>
