<?xml version="1.0" encoding="UTF-8" standalone="no"?>
<!DOCTYPE svg PUBLIC "-//W3C//DTD SVG 1.1//EN" "http://www.w3.org/Graphics/SVG/1.1/DTD/svg11.dtd">
<svg width="100%" height="100%" viewBox="0 0 1024 1024" version="1.1" xmlns="http://www.w3.org/2000/svg" xmlns:xlink="http://www.w3.org/1999/xlink" xml:space="preserve" xmlns:serif="http://www.serif.com/" style="fill-rule:evenodd;clip-rule:evenodd;stroke-linejoin:round;stroke-miterlimit:2;">
    <g id="designer_icon_marketing" transform="matrix(2.85799,0,0,2.84374,-109.418,-109.36)">
        <g>
            <g id="designer_icon_marketing1" serif:id="designer_icon_marketing">
                <g transform="matrix(0.349896,0,0,0.351649,38.2852,38.4565)">
                    <path d="M1024,100C1024,44.808 979.192,0 924,0L100,0C44.808,0 0,44.808 0,100L0,924C0,979.192 44.808,1024 100,1024L924,1024C979.192,1024 1024,979.192 1024,924L1024,100Z" style="fill:rgb(61,61,61);"/>
                </g>
                <g transform="matrix(0.349896,0,0,0.351649,-496.356,38.4565)">
                    <path d="M2477,909.311C2476.83,931.245 2458.97,949 2437,949L2033.31,949L1860.76,650.124L2477,650.124L2477,909.311ZM1603,909L1603,733.513L1983.19,75L2131.77,75L1810.58,631.33L1993.98,949L1643,949C1620.92,949 1603,931.077 1603,909ZM2090.17,616.044L1939.95,616.044C1923.18,616.044 1907.68,607.244 1899.3,592.717C1890.91,578.199 1890.91,560.3 1899.3,545.782C1932.67,487.982 1974.45,415.612 1974.45,415.612L2090.17,616.044ZM2437,75C2458.97,75 2476.83,92.755 2477,114.689L2477,616.044L2129.52,616.044L1994.11,381.549L2171.1,75L2437,75Z" style="fill:white;"/>
                </g>
            </g>
        </g>
    </g>
</svg>
