<?xml version="1.0" encoding="UTF-8" standalone="no"?>
<!DOCTYPE svg PUBLIC "-//W3C//DTD SVG 1.1//EN" "http://www.w3.org/Graphics/SVG/1.1/DTD/svg11.dtd">
<svg width="100%" height="100%" viewBox="0 0 2500 2034" version="1.1" xmlns="http://www.w3.org/2000/svg" xmlns:xlink="http://www.w3.org/1999/xlink" xml:space="preserve" xmlns:serif="http://www.serif.com/" style="fill-rule:evenodd;clip-rule:evenodd;stroke-linejoin:round;stroke-miterlimit:2;">
    <g transform="matrix(4.89221,0,0,4.89221,-2.40582,-235.403)">
        <path d="M510.003,279.642C507.005,258.545 499.698,238.538 488.278,220.183C478.319,204.164 465.54,189.917 450.287,177.808L450.328,177.77L290.133,54.731C290.018,54.629 289.897,54.534 289.772,54.444C284.446,50.364 277.235,48.119 269.475,48.119C261.705,48.119 254.212,50.369 248.387,54.457C242.124,58.832 238.544,64.637 238.294,70.816C238.065,76.581 240.815,82.128 246.058,86.452C256.368,94.587 266.655,102.899 276.956,111.221C286.953,119.301 297.254,127.622 307.505,135.723L111.292,135.59C88.853,135.59 73.574,146.127 70.431,163.768C69.05,171.495 71.487,179.991 76.935,186.498C82.715,193.396 91.107,197.201 100.564,197.201L115.522,197.211C136.186,197.211 156.941,197.16 177.668,197.11L197.434,197.064L19.354,328.812L18.647,329.329C8.7,336.953 2.188,347.642 0.783,358.653C-0.282,366.995 1.664,374.618 6.413,380.706C12.073,387.964 20.91,391.956 31.298,391.956C41.503,391.956 51.916,388.089 60.632,381.048L156.798,302.348C156.387,306.191 155.888,311.829 155.945,315.921C156.053,322.4 158.133,335.4 161.426,345.954C168.23,367.644 179.691,387.489 195.489,404.917C211.927,423.049 231.947,437.426 254.989,447.639C279.349,458.413 305.536,463.882 332.825,463.882L333.078,463.882C360.454,463.816 386.724,458.26 411.163,447.363C434.243,437.029 454.254,422.594 470.63,404.465C486.408,386.948 497.853,367.07 504.644,345.398C508.004,334.67 510.156,323.6 511.06,312.395C511.899,301.565 511.538,290.545 510.003,279.642ZM334.82,383.601C274.679,383.601 225.909,339.974 225.909,286.154C225.909,232.34 274.68,188.713 334.82,188.713C394.962,188.713 443.727,232.34 443.727,286.154C443.729,339.974 394.962,383.601 334.82,383.601ZM397.627,277.591C398.514,293.654 392.098,308.569 380.831,319.61C369.37,330.858 353.016,337.923 334.728,337.923C316.448,337.923 300.091,330.858 288.626,319.61C277.364,308.569 270.961,293.656 271.843,277.604C272.707,262.001 280.318,248.228 291.782,238.476C303.055,228.887 318.192,223.037 334.727,223.037C351.264,223.037 366.397,228.889 377.671,238.476C389.141,248.228 396.754,261.991 397.627,277.591Z" style="fill:rgb(61,61,61);fill-rule:nonzero;"/>
    </g>
</svg>
